<mxfile host="65bd71144e">
    <diagram id="kcIGn_kX_1L25iIxUXLg" name="Page-1">
        <mxGraphModel dx="1757" dy="531" grid="1" gridSize="10" guides="1" tooltips="1" connect="1" arrows="1" fold="1" page="1" pageScale="1" pageWidth="850" pageHeight="1100" math="0" shadow="0">
            <root>
                <mxCell id="0"/>
                <mxCell id="1" parent="0"/>
                <mxCell id="GdnXkJGOJiVmK7E47u4y-44" value="" style="shape=cylinder3;whiteSpace=wrap;html=1;boundedLbl=1;backgroundOutline=1;size=15;dashed=1;dashPattern=8 8;" parent="1" vertex="1">
                    <mxGeometry x="170" y="220" width="140" height="285" as="geometry"/>
                </mxCell>
                <mxCell id="EZAqd18MQriHtEKbU3QA-1" value="User" style="ellipse;whiteSpace=wrap;html=1;aspect=fixed;shadow=1;fontStyle=1" parent="1" vertex="1">
                    <mxGeometry x="200" y="260" width="80" height="80" as="geometry"/>
                </mxCell>
                <mxCell id="EZAqd18MQriHtEKbU3QA-2" value="Server" style="ellipse;whiteSpace=wrap;html=1;aspect=fixed;shadow=1;fontStyle=1" parent="1" vertex="1">
                    <mxGeometry x="30" y="262" width="80" height="80" as="geometry"/>
                </mxCell>
                <mxCell id="EZAqd18MQriHtEKbU3QA-3" value="Notary" style="ellipse;whiteSpace=wrap;html=1;aspect=fixed;shadow=1;fontStyle=1" parent="1" vertex="1">
                    <mxGeometry x="200" y="410" width="80" height="80" as="geometry"/>
                </mxCell>
                <mxCell id="GdnXkJGOJiVmK7E47u4y-40" value="blindly&lt;br&gt;signed&lt;br style=&quot;font-size: 11px;&quot;&gt;data" style="whiteSpace=wrap;html=1;shape=mxgraph.basic.document;fontSize=11;shadow=1;" parent="1" vertex="1">
                    <mxGeometry x="251" y="346" width="50" height="58" as="geometry"/>
                </mxCell>
                <mxCell id="GdnXkJGOJiVmK7E47u4y-43" value="Verifier" style="ellipse;whiteSpace=wrap;html=1;aspect=fixed;shadow=1;fontStyle=1" parent="1" vertex="1">
                    <mxGeometry x="410" y="260" width="80" height="80" as="geometry"/>
                </mxCell>
                <mxCell id="GdnXkJGOJiVmK7E47u4y-45" value="" style="endArrow=classic;startArrow=classic;html=1;rounded=0;entryX=0;entryY=0.5;entryDx=0;entryDy=0;exitX=1.028;exitY=0.462;exitDx=0;exitDy=0;exitPerimeter=0;" parent="1" source="EZAqd18MQriHtEKbU3QA-2" target="EZAqd18MQriHtEKbU3QA-1" edge="1">
                    <mxGeometry width="50" height="50" relative="1" as="geometry">
                        <mxPoint x="350" y="490" as="sourcePoint"/>
                        <mxPoint x="400" y="440" as="targetPoint"/>
                    </mxGeometry>
                </mxCell>
                <mxCell id="GdnXkJGOJiVmK7E47u4y-46" value="TLS" style="whiteSpace=wrap;html=1;fillColor=none;strokeColor=none;fontSize=11;" parent="1" vertex="1">
                    <mxGeometry x="116" y="284" width="60" height="10" as="geometry"/>
                </mxCell>
                <mxCell id="GdnXkJGOJiVmK7E47u4y-47" value="" style="endArrow=classic;html=1;rounded=0;" parent="1" source="EZAqd18MQriHtEKbU3QA-3" target="EZAqd18MQriHtEKbU3QA-1" edge="1">
                    <mxGeometry width="50" height="50" relative="1" as="geometry">
                        <mxPoint x="350" y="490" as="sourcePoint"/>
                        <mxPoint x="400" y="440" as="targetPoint"/>
                    </mxGeometry>
                </mxCell>
                <mxCell id="vS6lQRuDm8DtBRq3Yqvl-2" value="notarize" style="edgeLabel;html=1;align=center;verticalAlign=middle;resizable=0;points=[];" parent="GdnXkJGOJiVmK7E47u4y-47" vertex="1" connectable="0">
                    <mxGeometry x="-0.0599" y="2" relative="1" as="geometry">
                        <mxPoint x="-21" y="1" as="offset"/>
                    </mxGeometry>
                </mxCell>
                <mxCell id="GdnXkJGOJiVmK7E47u4y-48" value="redacted signed&lt;br style=&quot;font-size: 11px;&quot;&gt;data" style="whiteSpace=wrap;html=1;shape=mxgraph.basic.document;fontSize=11;shadow=1;" parent="1" vertex="1">
                    <mxGeometry x="330" y="310" width="50" height="60" as="geometry"/>
                </mxCell>
                <mxCell id="GdnXkJGOJiVmK7E47u4y-49" value="" style="endArrow=classic;html=1;rounded=0;" parent="1" source="EZAqd18MQriHtEKbU3QA-1" target="GdnXkJGOJiVmK7E47u4y-43" edge="1">
                    <mxGeometry width="50" height="50" relative="1" as="geometry">
                        <mxPoint x="350" y="490" as="sourcePoint"/>
                        <mxPoint x="400" y="440" as="targetPoint"/>
                    </mxGeometry>
                </mxCell>
                <mxCell id="GdnXkJGOJiVmK7E47u4y-50" value="&lt;span style=&quot;font-family: Helvetica; font-size: 11px; font-style: normal; font-variant-ligatures: normal; font-variant-caps: normal; font-weight: 400; letter-spacing: normal; orphans: 2; text-align: center; text-indent: 0px; text-transform: none; widows: 2; word-spacing: 0px; -webkit-text-stroke-width: 0px; text-decoration-thickness: initial; text-decoration-style: initial; text-decoration-color: initial; float: none; display: inline !important;&quot;&gt;selective disclosure&lt;/span&gt;" style="text;whiteSpace=wrap;html=1;" parent="1" vertex="1">
                    <mxGeometry x="330" y="262" width="50" height="40" as="geometry"/>
                </mxCell>
                <mxCell id="GdnXkJGOJiVmK7E47u4y-53" value="&lt;span style=&quot;font-family: Helvetica; font-size: 11px; font-style: normal; font-variant-ligatures: normal; font-variant-caps: normal; font-weight: 400; letter-spacing: normal; orphans: 2; text-indent: 0px; text-transform: none; widows: 2; word-spacing: 0px; -webkit-text-stroke-width: 0px; text-decoration-thickness: initial; text-decoration-style: initial; text-decoration-color: initial; float: none; display: inline !important;&quot;&gt;Multi party computation&lt;/span&gt;" style="text;whiteSpace=wrap;html=1;align=center;verticalAlign=middle;" parent="1" vertex="1">
                    <mxGeometry x="177" y="215" width="125" height="40" as="geometry"/>
                </mxCell>
                <mxCell id="GdnXkJGOJiVmK7E47u4y-54" value="1" style="ellipse;whiteSpace=wrap;html=1;aspect=fixed;fontSize=10;" parent="1" vertex="1">
                    <mxGeometry x="138.5" y="268" width="13" height="13" as="geometry"/>
                </mxCell>
                <mxCell id="GdnXkJGOJiVmK7E47u4y-55" value="2" style="ellipse;whiteSpace=wrap;html=1;aspect=fixed;fontSize=10;" parent="1" vertex="1">
                    <mxGeometry x="210" y="357" width="13" height="13" as="geometry"/>
                </mxCell>
                <mxCell id="GdnXkJGOJiVmK7E47u4y-56" value="3" style="ellipse;whiteSpace=wrap;html=1;aspect=fixed;fontSize=10;" parent="1" vertex="1">
                    <mxGeometry x="344.5" y="256" width="13" height="13" as="geometry"/>
                </mxCell>
                <mxCell id="GdnXkJGOJiVmK7E47u4y-58" value="4" style="ellipse;whiteSpace=wrap;html=1;aspect=fixed;fontSize=10;" parent="1" vertex="1">
                    <mxGeometry x="425" y="310" width="13" height="13" as="geometry"/>
                </mxCell>
                <mxCell id="GdnXkJGOJiVmK7E47u4y-59" value="&lt;span style=&quot;font-family: Helvetica; font-size: 11px; font-style: normal; font-variant-ligatures: normal; font-variant-caps: normal; font-weight: 400; letter-spacing: normal; orphans: 2; text-align: center; text-indent: 0px; text-transform: none; widows: 2; word-spacing: 0px; -webkit-text-stroke-width: 0px; text-decoration-thickness: initial; text-decoration-style: initial; text-decoration-color: initial; float: none; display: inline !important;&quot;&gt;verify&lt;/span&gt;" style="text;whiteSpace=wrap;html=1;" parent="1" vertex="1">
                    <mxGeometry x="438" y="302" width="40" height="20" as="geometry"/>
                </mxCell>
                <mxCell id="_06KIDZZ9NYgVlEzEhfi-3" value="" style="endArrow=classic;html=1;rounded=0;entryX=0;entryY=0.5;entryDx=0;entryDy=0;edgeStyle=elbowEdgeStyle;elbow=vertical;exitX=0;exitY=0.5;exitDx=0;exitDy=0;" parent="1" source="EZAqd18MQriHtEKbU3QA-1" target="EZAqd18MQriHtEKbU3QA-3" edge="1">
                    <mxGeometry width="50" height="50" relative="1" as="geometry">
                        <mxPoint x="180" y="330" as="sourcePoint"/>
                        <mxPoint x="110" y="354" as="targetPoint"/>
                        <Array as="points">
                            <mxPoint x="180" y="370"/>
                        </Array>
                    </mxGeometry>
                </mxCell>
            </root>
        </mxGraphModel>
    </diagram>
</mxfile>